# xmcd
#
# Track frame offsets: 
#        150
#        17639
#        34698
#        48335
#        62218
#        77968
#        92716
#        112450
#        126921
#        144001
#        150789
#        163755
#        179805
#        198855
#        214755
#        227355
#        245557
#        258307
#        273607
#        288589
#        302731
#        313139
#
# Disc length: 4386 seconds
#
# Revision: 0
# Processed by: cddbd v1.5.2PL0 Copyright (c) Steve Scherf et al.
# Submitted via: ExactAudioCopy v0.99pb5
#
DISCID=3e112016
DTITLE=Kaliyuga Pro - C.O.T.S. Instrumentals
DYEAR=2010
DGENRE=Hip-Hop
TTITLE0=Pack Light
TTITLE1=Gentle Movement
TTITLE2=Silent Thoughts
TTITLE3=Words Come Through
TTITLE4=Leap For Love
TTITLE5=Troding To The Sky
TTITLE6=Learning
TTITLE7=Blue Lagoon
TTITLE8=Soft Midsummer Rain
TTITLE9=Humble Blue Intro
TTITLE10=Broker
TTITLE11=Alive
TTITLE12=Planets
TTITLE13=From The Sun
TTITLE14=Foolof
TTITLE15=Playground
TTITLE16=Day On Earth
TTITLE17=Bonus01
TTITLE18=Bonus02
TTITLE19=Bonus03
TTITLE20=Bonus04
TTITLE21=Bonus05
EXTD=
EXTT0=
EXTT1=
EXTT2=
EXTT3=
EXTT4=
EXTT5=
EXTT6=
EXTT7=
EXTT8=
EXTT9=
EXTT10=
EXTT11=
EXTT12=
EXTT13=
EXTT14=
EXTT15=
EXTT16=
EXTT17=
EXTT18=
EXTT19=
EXTT20=
EXTT21=
PLAYORDER=
